<svg xmlns="http://www.w3.org/2000/svg" width="106" height="106" viewBox="0 0 106 106">
  <g id="gift" transform="translate(-236 -252)">
    <path id="Subtraction_4" data-name="Subtraction 4" d="M56.314,59.625H20.981C5.883,59.625,0,53.744,0,38.649V3.316A3.358,3.358,0,0,1,3.311,0H73.978a3.36,3.36,0,0,1,3.316,3.316V23.6a68.338,68.338,0,0,0-6.626,2.845V6.627H6.626V38.649C6.626,50.051,9.577,53,20.981,53H56.314c11.4,0,14.355-2.952,14.355-14.354v-5.88a66.653,66.653,0,0,1,6.626-3.145v9.025C77.294,53.744,71.412,59.625,56.314,59.625Z" transform="translate(250.222 292.853)" fill="#fbe4e4"/>
    <path id="Vector" d="M78.4,28.708H12.146C4.417,28.708,0,24.292,0,16.562V12.146C0,4.417,4.417,0,12.146,0H78.4C85.9,0,90.542,4.637,90.542,12.146v4.417C90.542,24.071,85.9,28.708,78.4,28.708ZM12.146,6.625c-4.019,0-5.521,1.5-5.521,5.521v4.417c0,4.019,1.5,5.521,5.521,5.521H78.4c3.887,0,5.521-1.634,5.521-5.521V12.146c0-3.887-1.634-5.521-5.521-5.521Z" transform="translate(243.729 270.771)" fill="#fbe4e4"/>
    <path id="Vector-2" data-name="Vector" d="M28.771,19.853H4.391a3.341,3.341,0,0,1-2.429-1.06A7.486,7.486,0,0,1,2.182,8.458L8.454,2.186a7.571,7.571,0,0,1,10.644,0L31.112,14.2a3.326,3.326,0,0,1,.707,3.622A3.228,3.228,0,0,1,28.771,19.853ZM6.82,13.228h14l-6.4-6.36a.906.906,0,0,0-1.281,0L6.864,13.14C6.864,13.184,6.82,13.184,6.82,13.228Z" transform="translate(258.639 257.543)" fill="#fbe4e4"/>
    <path id="Vector-3" data-name="Vector" d="M27.686,19.853H3.306A3.272,3.272,0,0,1,.258,17.821,3.342,3.342,0,0,1,.965,14.2L12.978,2.186a7.571,7.571,0,0,1,10.644,0l6.272,6.272a7.443,7.443,0,0,1,.221,10.335A3.341,3.341,0,0,1,27.686,19.853ZM11.344,13.228h14l-.088-.088L18.985,6.868a.906.906,0,0,0-1.281,0Z" transform="translate(287.24 257.543)" fill="#fbe4e4"/>
    <path id="Vector-4" data-name="Vector" d="M7.729,21.115a11.684,11.684,0,0,1-3.666-.58C1.546,19.68,0,18.051,0,16.285V2.07C0,.938,1.5,0,3.312,0H29.989C31.8,0,33.3.938,33.3,2.07V16.23c0,1.794-1.546,3.423-4.063,4.251a11.73,11.73,0,0,1-7.95-.248l-3.931-1.656a1.6,1.6,0,0,0-1.237,0l-4.152,1.711A10.914,10.914,0,0,1,7.729,21.115ZM6.625,4.14V16.257c0,.359.353.524.574.607a1.634,1.634,0,0,0,1.148-.028L12.5,15.126a11.654,11.654,0,0,1,8.524,0l3.931,1.656a1.634,1.634,0,0,0,1.148.028c.221-.083.574-.248.574-.607V4.113H6.625Z" transform="translate(272.172 292.854)" fill="#fbe4e4"/>
    <path id="Vector-5" data-name="Vector" d="M0,0H106V106H0Z" transform="translate(236 252)" fill="none" opacity="0"/>
    <g id="Group_1328" data-name="Group 1328" transform="translate(298.637 313.895)">
      <path id="Path_1025" data-name="Path 1025" d="M251.606,286.17a2.208,2.208,0,0,1-1.5-3.83c20.344-18.812,38-16.267,38.738-16.15a2.208,2.208,0,0,1-.684,4.363,30.042,30.042,0,0,0-10.43.96c-5.842,1.433-14.857,5.036-24.625,14.069A2.2,2.2,0,0,1,251.606,286.17Z" transform="translate(-248.448 -266.014)" fill="#fbe4e4"/>
      <path id="Path_1026" data-name="Path 1026" d="M263.184,283.932H251.39a2.208,2.208,0,0,1-2.1-2.907l4.2-12.607a2.208,2.208,0,1,1,4.19,1.4l-3.233,9.7h8.73a2.208,2.208,0,0,1,0,4.417Z" transform="translate(-249.182 -262.962)" fill="#fbe4e4"/>
    </g>
  </g>
</svg>
