<svg xmlns="http://www.w3.org/2000/svg" width="106" height="106" viewBox="0 0 106 106">
  <g id="vuesax_outline_frame" data-name="vuesax/outline/frame" transform="translate(-108 -252)">
    <g id="frame" transform="translate(108 252)">
      <path id="Vector" d="M23.629,45.8h-.353a2.4,2.4,0,0,0-.8,0,22.724,22.724,0,1,1,1.281,0ZM22.922,6.625A16.281,16.281,0,0,0,22.3,39.176a7.291,7.291,0,0,1,1.413,0,16.285,16.285,0,0,0-.8-32.551Z" transform="translate(30.076 5.521)" fill="#fbe4e4"/>
      <path id="Vector-2" data-name="Vector" d="M0,0H106V106H0Z" fill="none" opacity="0"/>
      <path id="Vector-3" data-name="Vector" d="M33.434,44.664c-8.657,0-17.358-2.208-23.938-6.625C3.357,33.975,0,28.41,0,22.359S3.357,10.7,9.5,6.592c13.25-8.789,34.715-8.789,47.877,0,6.1,4.063,9.5,9.628,9.5,15.679s-3.357,11.66-9.5,15.767C50.747,42.455,42.091,44.664,33.434,44.664ZM13.162,12.157C8.922,14.984,6.625,18.605,6.625,22.4c0,3.754,2.341,7.376,6.537,10.158,11,7.376,29.547,7.376,40.545,0,4.24-2.827,6.537-6.448,6.537-10.247,0-3.754-2.341-7.376-6.537-10.158C42.709,4.825,24.159,4.825,13.162,12.157Z" transform="translate(20.315 54.932)" fill="#fbe4e4"/>
    </g>
  </g>
</svg>
