<svg xmlns="http://www.w3.org/2000/svg" width="25.202" height="24" viewBox="0 0 25.202 24">
  <g id="gift" transform="translate(-236 -252)">
    <path id="Subtraction_3" data-name="Subtraction 3" d="M-2408.25-1572.5h-8c-3.418,0-4.75-1.332-4.75-4.75v-8a.76.76,0,0,1,.75-.75h16a.76.76,0,0,1,.751.75v6.987c-.506.11-1.011.2-1.5.268v-6.506h-14.5v7.25c0,2.582.668,3.25,3.25,3.25h8c2.277,0,3.026-.53,3.206-2.268.5-.062,1.009-.145,1.521-.247a4.129,4.129,0,0,1-1.248,3.087A5.222,5.222,0,0,1-2408.25-1572.5Z" transform="translate(2660.22 1847.25)"/>
    <path id="Vector" d="M17.75,6.5h-15A2.5,2.5,0,0,1,0,3.75v-1A2.5,2.5,0,0,1,2.75,0h15A2.548,2.548,0,0,1,20.5,2.75v1A2.548,2.548,0,0,1,17.75,6.5Zm-15-5c-.91,0-1.25.34-1.25,1.25v1C1.5,4.66,1.84,5,2.75,5h15C18.63,5,19,4.63,19,3.75v-1c0-.88-.37-1.25-1.25-1.25Z" transform="translate(237.75 256.25)"/>
    <path id="Vector-2" data-name="Vector" d="M6.514,4.495H.994a.756.756,0,0,1-.55-.24,1.7,1.7,0,0,1,.05-2.34L1.914.5a1.714,1.714,0,0,1,2.41,0l2.72,2.72a.753.753,0,0,1,.16.82A.731.731,0,0,1,6.514,4.495ZM1.544,3h3.17l-1.45-1.44a.205.205,0,0,0-.29,0l-1.42,1.42C1.554,2.985,1.544,2.985,1.544,3Z" transform="translate(241.126 253.255)"/>
    <path id="Vector-3" data-name="Vector" d="M6.269,4.495H.749a.741.741,0,0,1-.69-.46.757.757,0,0,1,.16-.82L2.939.5a1.714,1.714,0,0,1,2.41,0l1.42,1.42a1.685,1.685,0,0,1,.05,2.34A.756.756,0,0,1,6.269,4.495ZM2.569,3h3.17l-.02-.02L4.3,1.555a.205.205,0,0,0-.29,0Z" transform="translate(247.601 253.255)"/>
    <path id="Vector-4" data-name="Vector" d="M1.75,4.781A2.645,2.645,0,0,1,.92,4.65C.35,4.456,0,4.087,0,3.687V.469C0,.212.34,0,.75,0H6.79c.41,0,.75.212.75.469V3.675c0,.406-.35.775-.92.962a2.656,2.656,0,0,1-1.8-.056l-.89-.375a.362.362,0,0,0-.28,0l-.94.387A2.471,2.471,0,0,1,1.75,4.781ZM1.5.937V3.681c0,.081.08.119.13.137a.37.37,0,0,0,.26-.006l.94-.387a2.639,2.639,0,0,1,1.93,0l.89.375a.37.37,0,0,0,.26.006c.05-.019.13-.056.13-.137V.931H1.5Z" transform="translate(244.19 261.25)"/>
    <path id="Vector-5" data-name="Vector" d="M0,0H24V24H0Z" transform="translate(236 252)" fill="none" opacity="0"/>
    <g id="Group_1328" data-name="Group 1328" transform="matrix(-0.966, -0.259, 0.259, -0.966, 431.815, 593.362)">
      <path id="Path_1025" data-name="Path 1025" d="M249.9,270.578a.5.5,0,0,1-.34-.867c4.606-4.259,8.6-3.683,8.771-3.657a.5.5,0,0,1-.155.988,6.8,6.8,0,0,0-2.362.217,12.793,12.793,0,0,0-5.576,3.185A.5.5,0,0,1,249.9,270.578Z"/>
      <path id="Path_1026" data-name="Path 1026" d="M252.352,270.762h-2.67a.5.5,0,0,1-.474-.658l.951-2.854a.5.5,0,0,1,.949.316l-.732,2.2h1.977a.5.5,0,0,1,0,1Z"/>
    </g>
  </g>
</svg>
