<svg xmlns="http://www.w3.org/2000/svg" width="106" height="106" viewBox="0 0 106 106">
  <g id="vuesax_outline_people" data-name="vuesax/outline/people" transform="translate(-620 -252)">
    <g id="people" transform="translate(620 252)">
      <path id="Vector" d="M15.149,29.371h-.574a13.608,13.608,0,1,1,.618.044C15.193,29.371,15.193,29.371,15.149,29.371Zm-.442-22.79A8.086,8.086,0,0,0,14.4,22.746a2.141,2.141,0,0,1,.795,0,8.089,8.089,0,0,0-.486-16.165Z" transform="translate(64.35 5.565)" fill="#fbe4e4"/>
      <path id="Vector-2" data-name="Vector" d="M8.043,28.826a29.164,29.164,0,0,1-5.167-.442,3.318,3.318,0,1,1,1.148-6.537c5.433.927,11.174-.088,15.017-2.65,2.076-1.369,3.18-3.092,3.18-4.814s-1.148-3.4-3.18-4.77C15.2,7.052,9.368,6.036,3.891,7.008A3.281,3.281,0,0,1,.049,4.314,3.313,3.313,0,0,1,2.743.471C9.942-.809,17.406.56,22.706,4.093c3.887,2.606,6.139,6.316,6.139,10.291,0,3.931-2.208,7.685-6.139,10.335A26.878,26.878,0,0,1,8.043,28.826Z" transform="translate(71.501 38.66)" fill="#fbe4e4"/>
      <path id="Vector-3" data-name="Vector" d="M14.31,29.415h-.088a14.685,14.685,0,1,1,1.016,0L14.31,26.1l.309,3.312Zm.442-6.625a4.285,4.285,0,0,1,.751.044,8.216,8.216,0,1,0-1.148,0A.872.872,0,0,1,14.752,22.79Z" transform="translate(12.057 5.521)" fill="#fbe4e4"/>
      <path id="Vector-4" data-name="Vector" d="M20.8,28.826A26.878,26.878,0,0,1,6.139,24.719C2.252,22.113,0,18.359,0,14.384,0,10.453,2.252,6.7,6.139,4.093,11.439.56,18.9-.809,26.1.471A3.313,3.313,0,0,1,28.8,4.314a3.281,3.281,0,0,1-3.842,2.694c-5.477-.972-11.262.044-15.149,2.606-2.076,1.369-3.18,3.048-3.18,4.77s1.148,3.445,3.18,4.814c3.842,2.562,9.584,3.577,15.017,2.65a3.318,3.318,0,1,1,1.148,6.537A29.164,29.164,0,0,1,20.8,28.826Z" transform="translate(5.521 38.66)" fill="#fbe4e4"/>
      <path id="Vector-5" data-name="Vector" d="M15.149,29.371h-.574a13.608,13.608,0,1,1,.618.044C15.193,29.371,15.193,29.371,15.149,29.371Zm-.442-22.79A8.086,8.086,0,0,0,14.4,22.746a2.141,2.141,0,0,1,.795,0,8.089,8.089,0,0,0-.486-16.165Z" transform="translate(37.85 38.557)" fill="#fbe4e4"/>
      <path id="Vector-6" data-name="Vector" d="M20.847,28.885A26.488,26.488,0,0,1,6.139,24.733C2.252,22.128,0,18.418,0,14.443,0,10.512,2.208,6.713,6.139,4.107c8.259-5.477,21.2-5.477,29.415,0,3.887,2.606,6.139,6.316,6.139,10.291,0,3.931-2.208,7.729-6.139,10.335A26.851,26.851,0,0,1,20.847,28.885ZM9.805,9.673c-2.076,1.369-3.18,3.092-3.18,4.814s1.148,3.4,3.18,4.77c5.962,4.019,16.077,4.019,22.039,0,2.076-1.369,3.18-3.092,3.18-4.814s-1.148-3.4-3.18-4.77C25.926,5.653,15.812,5.7,9.805,9.673Z" transform="translate(32.152 71.638)" fill="#fbe4e4"/>
      <path id="Vector-7" data-name="Vector" d="M0,0H106V106H0Z" fill="none" opacity="0"/>
    </g>
  </g>
</svg>
