<svg xmlns="http://www.w3.org/2000/svg" width="505" height="331.168" viewBox="0 0 505 331.168">
  <g id="Group_57" data-name="Group 57" transform="translate(0 0)">
    <path id="Path_438" data-name="Path 438" d="M174.895,677.685a13.149,13.149,0,0,0,12.7-2.237c4.447-3.733,5.842-9.881,6.976-15.575l3.356-16.842-7.026,4.837c-5.053,3.479-10.219,7.069-13.716,12.108s-5.024,11.917-2.214,17.37" transform="translate(-152.598 -372.63)" fill="#e6e6e6"/>
    <path id="Path_439" data-name="Path 439" d="M176.9,711.337c-.884-6.442-1.794-12.967-1.172-19.479a30.639,30.639,0,0,1,5.907-16.062,26.718,26.718,0,0,1,6.855-6.212c.685-.432,1.316.654.634,1.084a25.4,25.4,0,0,0-10.048,12.123c-2.188,5.564-2.539,11.629-2.162,17.539.228,3.574.712,7.125,1.2,10.672a.651.651,0,0,1-.439.772.632.632,0,0,1-.772-.439Z" transform="translate(-153.519 -384.718)" fill="#f2f2f2"/>
    <path id="Path_442" data-name="Path 442" d="M189.781,718.7a9.68,9.68,0,0,0,8.434,4.354c4.27-.2,7.829-3.182,11.032-6.011l9.477-8.367-6.272-.3c-4.51-.216-9.137-.419-13.433.974s-8.258,4.738-9.043,9.185" transform="translate(-160.034 -402.422)" fill="#e6e6e6"/>
    <path id="Path_443" data-name="Path 443" d="M173.387,737.019c4.257-7.532,9.194-15.9,18.018-18.579a20.1,20.1,0,0,1,7.578-.782c.8.069.6,1.31-.2,1.24a18.679,18.679,0,0,0-12.094,3.2,31.435,31.435,0,0,0-8.312,8.97c-1.377,2.1-2.61,4.281-3.843,6.464C174.141,738.229,172.989,737.725,173.387,737.019Z" transform="translate(-152.505 -406.697)" fill="#f2f2f2"/>
    <rect id="Rectangle_69" data-name="Rectangle 69" width="186.796" height="159.102" transform="translate(131.192 171.302)" fill="#fff"/>
    <path id="Path_119" data-name="Path 119" d="M563.484,619.719H375.6V459.531H563.484Zm-186.8-1.086H562.4V460.617H376.688Z" transform="translate(-244.952 -288.772)" fill="#3f3d56"/>
    <rect id="Rectangle_70" data-name="Rectangle 70" width="46.699" height="128.151" transform="translate(201.241 202.254)" fill="#6c63ff"/>
    <rect id="Rectangle_71" data-name="Rectangle 71" width="46.699" height="128.151" transform="translate(201.241 202.254)" fill="#cb1d1c"/>
    <path id="Path_120" data-name="Path 120" d="M242.6,336.968v25.814l186.253,11.926-.549-31.852Z" transform="translate(-110.867 -153.991)" opacity="0.2"/>
    <rect id="Rectangle_72" data-name="Rectangle 72" width="208.516" height="45.613" transform="translate(120.332 156.641)" fill="#cb1d1c"/>
    <path id="Path_121" data-name="Path 121" d="M565.2,479.23H355.6v-46.7H565.2Zm-208.516-1.086h207.43V433.617H356.688Z" transform="translate(-235.813 -276.433)" fill="#3f3d56"/>
    <rect id="Rectangle_73" data-name="Rectangle 73" width="46.699" height="49.414" transform="translate(201.241 152.297)" fill="#ae1918"/>
    <path id="Path_122" data-name="Path 122" d="M498.253,330.61c12.327,18.273.713,47.663.713,47.663s-31.6-.237-43.928-18.51-.713-47.663-.713-47.663S485.926,312.337,498.253,330.61Z" transform="translate(-278.663 -221.397)" fill="#cb1d1c"/>
    <path id="Path_123" data-name="Path 123" d="M545.038,330.61c-12.327,18.273-.713,47.663-.713,47.663s31.6-.237,43.928-18.51.713-47.663.713-47.663S557.366,312.337,545.038,330.61Z" transform="translate(-244.094 -318.58) rotate(11)" fill="#cb1d1c"/>
    <circle id="Ellipse_12" data-name="Ellipse 12" cx="4.887" cy="4.887" r="4.887" transform="translate(187.123 113.2)" fill="#3f3d56"/>
    <circle id="Ellipse_13" data-name="Ellipse 13" cx="4.887" cy="4.887" r="4.887" transform="translate(216.445 162.614)" fill="#3f3d56"/>
    <circle id="Ellipse_14" data-name="Ellipse 14" cx="4.887" cy="4.887" r="4.887" transform="translate(216.445 269.587)" fill="#3f3d56"/>
    <circle id="Ellipse_15" data-name="Ellipse 15" cx="3.258" cy="3.258" r="3.258" transform="translate(201.784 132.749)" fill="#3f3d56"/>
    <circle id="Ellipse_16" data-name="Ellipse 16" cx="3.258" cy="3.258" r="3.258" transform="translate(250.655 105.055)" fill="#3f3d56"/>
    <circle id="Ellipse_17" data-name="Ellipse 17" cx="3.258" cy="3.258" r="3.258" transform="translate(229.477 181.62)" fill="#3f3d56"/>
    <circle id="Ellipse_18" data-name="Ellipse 18" cx="3.258" cy="3.258" r="3.258" transform="translate(209.929 223.974)" fill="#3f3d56"/>
    <circle id="Ellipse_19" data-name="Ellipse 19" cx="3.258" cy="3.258" r="3.258" transform="translate(226.762 238.636)" fill="#3f3d56"/>
    <circle id="Ellipse_20" data-name="Ellipse 20" cx="3.258" cy="3.258" r="3.258" transform="translate(222.961 299.996)" fill="#3f3d56"/>
    <path id="Path_124" data-name="Path 124" d="M779.236,578.079h-5.958l-2.835-22.983h8.795Z" transform="translate(-352.084 -253.673)" fill="#a27b3f"/>
    <path id="Path_125" data-name="Path 125" d="M908.265,746.623H889.051v-.243a7.479,7.479,0,0,1,7.478-7.478h11.736Z" transform="translate(-479.593 -416.441)" fill="#2f2e41"/>
    <path id="Path_126" data-name="Path 126" d="M813.436,578.079H819.4l2.834-22.983h-8.795Z" transform="translate(-371.731 -253.673)" fill="#a27b3f"/>
    <path id="Path_127" data-name="Path 127" d="M945.638,738.9h11.735a7.479,7.479,0,0,1,7.478,7.478v.243H945.638Z" transform="translate(-505.453 -416.441)" fill="#2f2e41"/>
    <circle id="Ellipse_21" data-name="Ellipse 21" cx="10.415" cy="10.415" r="10.415" transform="translate(402.538 144.859) rotate(-63.58)" fill="#a27b3f"/>
    <path id="Path_128" data-name="Path 128" d="M886.127,534.208s-3.289,13.7-1.644,20.281,6.578,51.526,6.578,51.526l3.289,35.629,13.155,1.1-1.644-41.659L907.5,564.9l9.318,35.081v41.783l13.952.548.3-54.391s1.1-42.755-6.03-48.237-8.222-6.578-8.222-6.578Z" transform="translate(-477.295 -322.397)" fill="#2f2e41"/>
    <path id="Path_129" data-name="Path 129" d="M905.912,424.09l12.481,6.578,1.644,57.007s-7.126-4.385-18.089,1.1-18.089,1.644-18.089,1.644l6.578-24.667L887.7,432.86l3.92-3.558Z" transform="translate(-477.221 -272.576)" fill="#cbcbcb"/>
    <path id="Path_130" data-name="Path 130" d="M883.775,431.766l-2.277,1.855s-14.252,7.126-14.8,12.059l9.867,26.859s2.741,6.03.548,8.222-4.385,7.674-3.837,10.415-3.289,14.252,1.1,14.252,14.8-26.311,14.252-36.726S887.7,431.007,883.775,431.766Z" transform="translate(-469.378 -276.076)" fill="#2f2e41"/>
    <path id="Path_131" data-name="Path 131" d="M915.638,424.525l5.021-.835s18.637,4.933,21.378,13.155l-7.674,19.185s5.482,35.081,3.837,35.081h-1.644s4.385,3.289,1.644,4.385-9.318,9.867-10.963,6.03-11.511-49.333-10.415-59.2S914.664,425.558,915.638,424.525Z" transform="translate(-491.659 -272.393)" fill="#2f2e41"/>
    <path id="Path_132" data-name="Path 132" d="M902.685,379.7l.488-.982-2.454-1.219s-2.708-4.406-7.607-3.168-7.1,1.979-7.1,1.979l-2.448,1.232,1.229,1.223-2.2.741,1.473.732-1.714.985.922,5.049s1.532-3.829,4.477-2.366,8.333-.756,8.333-.756l4.68,9.058s.966-3.175,2.687-2.329C903.443,389.882,907.841,382.878,902.685,379.7Z" transform="translate(-476.527 -249.738)" fill="#2f2e41"/>
    <path id="Path_133" data-name="Path 133" d="M947.575,541.452a4.887,4.887,0,0,1,3.494-6.63l2.11-17.24,6.875,5.847L957,538.9a4.914,4.914,0,0,1-9.421,2.548Z" transform="translate(-506.172 -315.3)" fill="#a27b3f"/>
    <path id="Path_134" data-name="Path 134" d="M881.678,539.88a4.887,4.887,0,0,0-4.177-6.222l-3.926-16.919-6.216,6.543,4.681,15.063a4.914,4.914,0,0,0,9.638,1.535Z" transform="translate(-469.68 -314.915)" fill="#a27b3f"/>
    <path id="Path_135" data-name="Path 135" d="M947.447,439.321s7.126-2.741,9.318,5.481,4.933,24.667,4.933,24.667c.136,9.144-.35,9.144,0,18.089l-1.644,8.222-9.318-1.1.406-20.931-4.792-21.276Z" transform="translate(-505.779 -279.336)" fill="#2f2e41"/>
    <path id="Path_136" data-name="Path 136" d="M869.777,451.346l-3.379.361s-3.2,2.379-3.2,7.861-.548,21.926-.548,21.926-.311.385,2.193,14.252c1.22,6.759,3.329,9.948,3.329,9.948l6.8-6.318-.815-16.238,2.193-8.77Z" transform="translate(-467.523 -285.031)" fill="#2f2e41"/>
    <path id="Path_137" data-name="Path 137" d="M639.457,753.617H135.543a.543.543,0,0,1,0-1.086H639.457a.543.543,0,1,1,0,1.086Z" transform="translate(-135 -422.67)" fill="#3f3d56"/>
    <circle id="Ellipse_22" data-name="Ellipse 22" cx="11.961" cy="11.961" r="11.961" transform="translate(113.284 145.623)" fill="#a27b3f"/>
    <path id="Path_138" data-name="Path 138" d="M337.7,523.71q-.226,0-.454-.02a5.358,5.358,0,0,1-4.809-6.388,5.024,5.024,0,0,1,.132-.509l-17.654-20.879a4.161,4.161,0,0,1-.289-4.96l.032-.039,15.891-15.669a4.593,4.593,0,1,1,6.45,6.542l-.06.058-11.509,10.941,12.6,20.222a5.1,5.1,0,0,1,.711.088,5.358,5.358,0,0,1-1.039,10.613Z" transform="translate(-216.775 -295.349)" fill="#a27b3f"/>
    <path id="Path_139" data-name="Path 139" d="M266.927,577.4H272.9l2.84-23.029h-8.812Z" transform="translate(-121.982 -253.339)" fill="#a27b3f"/>
    <path id="Path_140" data-name="Path 140" d="M399.124,738.25h11.759a7.493,7.493,0,0,1,7.493,7.493v.244H399.124Z" transform="translate(-255.702 -416.143)" fill="#2f2e41"/>
    <path id="Path_141" data-name="Path 141" d="M157.641,564.922l5.13,3.054,14.223-18.334-7.571-4.508Z" transform="translate(-72.04 -249.12)" fill="#a27b3f"/>
    <path id="Path_142" data-name="Path 142" d="M288.737,722.118l10.1,6.015h0a7.493,7.493,0,0,1,2.6,10.272h0l-.125.209-16.541-9.849Z" transform="translate(-203.447 -408.771)" fill="#2f2e41"/>
    <path id="Path_143" data-name="Path 143" d="M362.209,634.446h-6.686a2.187,2.187,0,0,1-2.179-1.96l-6.74-63.357a.731.731,0,0,0-1.392-.224L333.052,595.83l-21.528,35.1a2.2,2.2,0,0,1-2.751.86l-8.6-3.784a2.192,2.192,0,0,1-1-3.13l19.79-33.136,6.069-27.919c-1.909-12.108,6.274-30.108,6.357-30.289l.041-.088,22.541-8.81.113.138c8.89,29.173,14.307,60.567,10.307,107.664a2.206,2.206,0,0,1-2.185,2.007Z" transform="translate(-209.885 -318.524)" fill="#2f2e41"/>
    <path id="Path_144" data-name="Path 144" d="M348.822,509.028l-.105-.221c-.05-.106-5.062-10.677-8.926-21.976a16.666,16.666,0,0,1,1.156-13.356,16.848,16.848,0,0,1,10.744-8.261h0a16.868,16.868,0,0,1,19.578,10.1c3.065,7.664,2.088,15.845,1.169,22.278l-.018.129-.117.056Z" transform="translate(-228.182 -291.156)" fill="#f4aeae"/>
    <path id="Path_145" data-name="Path 145" d="M376.372,414.336H357.379v-8.279c4.169-1.656,8.248-3.065,10.714,0a8.279,8.279,0,0,1,8.279,8.279Z" transform="translate(-236.625 -263.509)" fill="#2f2e41"/>
    <path id="Path_146" data-name="Path 146" d="M343.213,404.888c-11.354,0-14.533,14.232-14.533,22.262,0,4.478,2.025,6.079,5.207,6.621l1.124-5.994,2.632,6.252c.894,0,1.833-.013,2.806-.031l.892-1.838,1.99,1.8c7.971.012,14.413,1.174,14.413-6.815C357.745,419.12,354.957,404.888,343.213,404.888Z" transform="translate(-223.51 -263.8)" fill="#2f2e41"/>
    <path id="Path_147" data-name="Path 147" d="M412.728,431.881q.108.2.2.408a5.358,5.358,0,0,1-3.3,7.283,5.033,5.033,0,0,1-.51.129l-9.859,25.5a4.161,4.161,0,0,1-4.214,2.632l-.05-.009-21.369-6.433a4.593,4.593,0,1,1,2.649-8.8l.08.025,15.12,4.854,11.706-20.752a5.1,5.1,0,0,1-.264-.666,5.358,5.358,0,0,1,9.811-4.177Z" transform="translate(-242.555 -274.865)" fill="#a27b3f"/>
    <path id="Path_148" data-name="Path 148" d="M767.83,306.013c-7.988-10.69-22.609-13.27-29.874-7.841s-8.934,20.181-.946,30.872c7.394,9.9,20.791,12.594,28.17,8.887a.924.924,0,0,0,0,.351l.416,2.057a.938.938,0,0,0,1.5.553l3.523-2.752a.938.938,0,0,0-.175-1.587l-1.895-.9a.93.93,0,0,0-.209-.065C774.021,329.573,775.24,315.93,767.83,306.013Z" transform="translate(-407.695 -213.773)" fill="#ccc"/>
    <path id="Path_149" data-name="Path 149" d="M765.612,306.347a15.439,15.439,0,0,1,12.93,16.879c-.086.9,1.322.9,1.408,0a16.881,16.881,0,0,0-13.964-18.237C765.1,304.839,764.719,306.195,765.612,306.347Z" transform="translate(-422.95 -218.143)" fill="#fff"/>
    <path id="Path_150" data-name="Path 150" d="M276.394,312.157c6.984-11.372,3.982-25.912-3.747-30.658s-22.054-.849-29.038,10.523c-6.465,10.526-4.025,23.972,2.146,29.46a.926.926,0,0,0-.328.126l-1.758,1.146a.938.938,0,0,0,.039,1.6l3.859,2.257a.938.938,0,0,0,1.41-.748l.138-2.094a.927.927,0,0,0-.016-.218C256.786,326.612,269.915,322.706,276.394,312.157Z" transform="translate(-182.888 -206.508)" fill="#ccc"/>
    <path id="Path_151" data-name="Path 151" d="M292.663,306.349a15.439,15.439,0,0,1-10.91,18.25c-.869.253-.344,1.56.52,1.308a16.881,16.881,0,0,0,11.79-19.712C293.875,305.317,292.475,305.464,292.663,306.349Z" transform="translate(-201.861 -218.43)" fill="#fff"/>
    <path id="Path_152" data-name="Path 152" d="M917.9,168.373c-.584-13.333-11.215-23.7-20.276-23.3s-18.745,11.65-18.161,24.983c.541,12.341,10.093,22.113,18.279,23.2a.926.926,0,0,0-.2.288l-.814,1.934a.938.938,0,0,0,.926,1.3l4.461-.291a.938.938,0,0,0,.749-1.41l-1.059-1.812a.93.93,0,0,0-.135-.171C909.749,191.33,918.437,180.741,917.9,168.373Z" transform="translate(-475.198 -145.063)" fill="#00a30c"/>
    <path id="Path_153" data-name="Path 153" d="M927.684,162.789a15.439,15.439,0,0,1,1.184,21.23c-.578.7.589,1.484,1.163.792a16.881,16.881,0,0,0-1.274-22.933C928.109,161.254,927.031,162.161,927.684,162.789Z" transform="translate(-497.155 -152.652)" fill="#fff"/>
    <path id="Path_154" data-name="Path 154" d="M753.761,244.214a22.146,22.146,0,0,1-17.322-10.261c-.524-.838-1.209-1.76-.846-2.792a1.835,1.835,0,0,1,1.9-1.27,2.405,2.405,0,0,1,.248,4.635c-2.422,1.033-4.866-.564-6.839-1.838-4.5-2.9-9.441-5.53-14.889-5.861-5.041-.306-10.446,1.67-13.249,6.041-.491.765.727,1.471,1.215.71,2.781-4.335,8.4-5.892,13.289-5.222a25.835,25.835,0,0,1,8.315,2.823c1.343.7,2.646,1.47,3.923,2.282a25.026,25.026,0,0,0,3.847,2.206c2.243.922,5.213.85,6.781-1.272a3.864,3.864,0,0,0-2.113-5.832,3.3,3.3,0,0,0-3.871,3.931,9.637,9.637,0,0,0,1.8,3.259,23.555,23.555,0,0,0,17.808,9.867c.905.045.9-1.363,0-1.408Z" transform="translate(-394.41 -182.415)" fill="#ccc"/>
  </g>
</svg>
